<svg width="752" height="496" viewBox="0 0 752 496" fill="none" xmlns="http://www.w3.org/2000/svg">
<path d="M16.108 305.534H14.108V307.534H16.108V305.534ZM16.108 256.188L14.4193 255.116L14.108 255.606V256.188H16.108ZM123.366 87.1818V85.1818H122.267L121.678 86.1101L123.366 87.1818ZM167.216 87.1818H169.216V85.1818H167.216V87.1818ZM167.216 154.17V156.17H169.216V154.17H167.216ZM141.776 154.17V152.17H140.673L140.084 153.103L141.776 154.17ZM79.0057 253.631L77.3143 252.563L77.0057 253.052V253.631H79.0057ZM79.0057 255.676H77.0057V257.676H79.0057V255.676ZM234.332 255.676H236.332V253.676H234.332V255.676ZM234.332 305.534V307.534H236.332V305.534H234.332ZM142.543 349H140.543V351H142.543V349ZM142.543 290.449L140.546 290.331L140.543 290.39V290.449H142.543ZM143.821 268.844L145.818 268.962L145.821 268.903V268.844H143.821ZM143.821 87.1818V85.1818H141.821V87.1818H143.821ZM203.011 87.1818H205.011V85.1818H203.011V87.1818ZM203.011 349V351H205.011V349H203.011ZM18.108 305.534V256.188H14.108V305.534H18.108ZM17.7966 257.259L125.055 88.2535L121.678 86.1101L14.4193 255.116L17.7966 257.259ZM123.366 89.1818H167.216V85.1818H123.366V89.1818ZM165.216 87.1818V154.17H169.216V87.1818H165.216ZM167.216 152.17H141.776V156.17H167.216V152.17ZM140.084 153.103L77.3143 252.563L80.697 254.698L143.467 155.238L140.084 153.103ZM77.0057 253.631V255.676H81.0057V253.631H77.0057ZM79.0057 257.676H234.332V253.676H79.0057V257.676ZM232.332 255.676V305.534H236.332V255.676H232.332ZM234.332 303.534H16.108V307.534H234.332V303.534ZM144.543 349V290.449H140.543V349H144.543ZM144.539 290.567L145.818 268.962L141.825 268.726L140.546 290.331L144.539 290.567ZM145.821 268.844V87.1818H141.821V268.844H145.821ZM143.821 89.1818H203.011V85.1818H143.821V89.1818ZM201.011 87.1818V349H205.011V87.1818H201.011ZM203.011 347H142.543V351H203.011V347ZM316.726 339.156L315.624 340.826L315.63 340.83L316.726 339.156ZM278.501 292.239L276.669 293.04L276.67 293.043L278.501 292.239ZM265.206 218.474L263.206 218.468L265.206 218.474ZM278.629 145.349L276.802 144.536L276.8 144.54L278.629 145.349ZM316.726 99.4545L317.801 101.141L317.803 101.14L316.726 99.4545ZM434.851 99.4545L433.774 101.14L433.784 101.146L434.851 99.4545ZM473.203 145.349L475.03 144.536L473.203 145.349ZM486.499 218.474L484.499 218.468V218.474H486.499ZM473.075 292.366L471.243 291.565L473.075 292.366ZM434.851 339.284L435.944 340.959L435.946 340.957L434.851 339.284ZM408.899 282.778L410.609 283.817L410.611 283.812L408.899 282.778ZM421.428 218.474H419.428L419.428 218.48L421.428 218.474ZM415.675 171.685L413.765 172.277L413.766 172.281L415.675 171.685ZM399.695 144.071L401.022 142.575L399.695 144.071ZM342.933 155.577L344.639 156.621L344.642 156.617L342.933 155.577ZM330.277 218.474L332.277 218.483V218.48L330.277 218.474ZM335.774 266.159L333.857 266.729L333.861 266.741L335.774 266.159ZM351.882 294.412L350.543 295.898L350.553 295.907L351.882 294.412ZM375.788 353.392C353.274 353.392 333.981 348.062 317.821 337.483L315.63 340.83C332.538 351.898 352.62 357.392 375.788 357.392V353.392ZM317.827 337.487C301.653 326.815 289.146 311.496 280.332 291.434L276.67 293.043C285.754 313.72 298.73 329.679 315.624 340.826L317.827 337.487ZM280.334 291.437C271.523 271.299 267.121 247 267.206 218.48L263.206 218.468C263.12 247.392 267.582 272.269 276.669 293.04L280.334 291.437ZM267.206 218.48C267.291 189.953 271.736 165.868 280.458 146.159L276.8 144.54C267.796 164.887 263.292 189.552 263.206 218.468L267.206 218.48ZM280.457 146.162C289.267 126.36 301.724 111.387 317.801 101.141L315.651 97.7679C298.83 108.488 285.889 124.112 276.802 144.536L280.457 146.162ZM317.803 101.14C333.966 90.809 353.265 85.6023 375.788 85.6023V81.6023C352.63 81.6023 332.554 86.9637 315.649 97.7694L317.803 101.14ZM375.788 85.6023C398.311 85.6023 417.611 90.809 433.774 101.14L435.928 97.7694C419.022 86.9637 398.947 81.6023 375.788 81.6023V85.6023ZM433.784 101.146C450.029 111.393 462.568 126.365 471.376 146.162L475.03 144.536C465.941 124.106 452.911 108.482 435.918 97.763L433.784 101.146ZM471.376 146.162C480.181 165.953 484.583 190.033 484.499 218.468L488.499 218.48C488.584 189.643 484.123 164.973 475.03 144.536L471.376 146.162ZM484.499 218.474C484.499 247.082 480.054 271.425 471.243 291.565L474.908 293.168C483.994 272.399 488.499 247.48 488.499 218.474H484.499ZM471.243 291.565C462.429 311.711 449.923 327.027 433.755 337.611L435.946 340.957C452.846 329.894 465.824 313.931 474.908 293.168L471.243 291.565ZM433.758 337.609C417.685 348.102 398.392 353.392 375.788 353.392V357.392C399.037 357.392 419.119 351.943 435.944 340.959L433.758 337.609ZM375.788 305.616C390.267 305.616 401.89 298.172 410.609 283.817L407.19 281.74C399.033 295.169 388.582 301.616 375.788 301.616V305.616ZM410.611 283.812C419.334 269.363 423.513 247.482 423.428 218.469L419.428 218.48C419.512 247.251 415.34 268.24 407.187 281.745L410.611 283.812ZM423.428 218.474C423.428 199.438 421.5 183.622 417.584 171.088L413.766 172.281C417.519 184.293 419.428 199.67 419.428 218.474H423.428ZM417.585 171.092C413.685 158.524 408.205 148.95 401.022 142.575L398.367 145.567C404.821 151.295 409.994 160.129 413.765 172.277L417.585 171.092ZM401.022 142.575C393.838 136.199 385.397 132.994 375.788 132.994V136.994C384.419 136.994 391.915 139.841 398.367 145.567L401.022 142.575ZM375.788 132.994C361.4 132.994 349.861 140.349 341.225 154.537L344.642 156.617C352.71 143.361 363.075 136.994 375.788 136.994V132.994ZM341.228 154.532C332.587 168.639 328.363 190.051 328.277 218.468L332.277 218.48C332.362 190.307 336.575 169.787 344.639 156.621L341.228 154.532ZM328.277 218.466C328.191 237.757 330.032 253.863 333.857 266.729L337.691 265.589C334.016 253.228 332.192 237.544 332.277 218.483L328.277 218.466ZM333.861 266.741C337.76 279.564 343.279 289.351 350.543 295.898L353.221 292.926C346.678 287.029 341.459 277.981 337.688 265.577L333.861 266.741ZM350.553 295.907C357.814 302.361 366.253 305.616 375.788 305.616V301.616C367.256 301.616 359.757 298.736 353.211 292.917L350.553 295.907ZM519.545 305.534H517.545V307.534H519.545V305.534ZM519.545 256.188L517.857 255.116L517.545 255.606V256.188H519.545ZM626.804 87.1818V85.1818H625.704L625.115 86.1101L626.804 87.1818ZM670.653 87.1818H672.653V85.1818H670.653V87.1818ZM670.653 154.17V156.17H672.653V154.17H670.653ZM645.213 154.17V152.17H644.11L643.522 153.103L645.213 154.17ZM582.443 253.631L580.752 252.563L580.443 253.052V253.631H582.443ZM582.443 255.676H580.443V257.676H582.443V255.676ZM737.77 255.676H739.77V253.676H737.77V255.676ZM737.77 305.534V307.534H739.77V305.534H737.77ZM645.98 349H643.98V351H645.98V349ZM645.98 290.449L643.984 290.331L643.98 290.39V290.449H645.98ZM647.259 268.844L649.255 268.962L649.259 268.903V268.844H647.259ZM647.259 87.1818V85.1818H645.259V87.1818H647.259ZM706.449 87.1818H708.449V85.1818H706.449V87.1818ZM706.449 349V351H708.449V349H706.449ZM521.545 305.534V256.188H517.545V305.534H521.545ZM521.234 257.259L628.493 88.2535L625.115 86.1101L517.857 255.116L521.234 257.259ZM626.804 89.1818H670.653V85.1818H626.804V89.1818ZM668.653 87.1818V154.17H672.653V87.1818H668.653ZM670.653 152.17H645.213V156.17H670.653V152.17ZM643.522 153.103L580.752 252.563L584.135 254.698L646.904 155.238L643.522 153.103ZM580.443 253.631V255.676H584.443V253.631H580.443ZM582.443 257.676H737.77V253.676H582.443V257.676ZM735.77 255.676V305.534H739.77V255.676H735.77ZM737.77 303.534H519.545V307.534H737.77V303.534ZM647.98 349V290.449H643.98V349H647.98ZM647.977 290.567L649.255 268.962L645.262 268.726L643.984 290.331L647.977 290.567ZM649.259 268.844V87.1818H645.259V268.844H649.259ZM647.259 89.1818H706.449V85.1818H647.259V89.1818ZM704.449 87.1818V349H708.449V87.1818H704.449ZM706.449 347H645.98V351H706.449V347Z" fill="#1748D2"/>
<path d="M188.643 473.909C188.643 476.705 188.131 479.108 187.109 481.119C186.086 483.122 184.684 484.665 182.903 485.747C181.13 486.821 179.114 487.358 176.856 487.358C174.589 487.358 172.565 486.821 170.783 485.747C169.011 484.665 167.613 483.118 166.59 481.107C165.567 479.095 165.056 476.696 165.056 473.909C165.056 471.114 165.567 468.714 166.59 466.712C167.613 464.7 169.011 463.158 170.783 462.084C172.565 461.001 174.589 460.46 176.856 460.46C179.114 460.46 181.13 461.001 182.903 462.084C184.684 463.158 186.086 464.7 187.109 466.712C188.131 468.714 188.643 471.114 188.643 473.909ZM184.731 473.909C184.731 471.778 184.386 469.984 183.695 468.527C183.013 467.061 182.076 465.953 180.883 465.203C179.698 464.445 178.356 464.065 176.856 464.065C175.347 464.065 174.001 464.445 172.816 465.203C171.631 465.953 170.694 467.061 170.004 468.527C169.322 469.984 168.981 471.778 168.981 473.909C168.981 476.04 169.322 477.838 170.004 479.304C170.694 480.761 171.631 481.869 172.816 482.628C174.001 483.378 175.347 483.753 176.856 483.753C178.356 483.753 179.698 483.378 180.883 482.628C182.076 481.869 183.013 480.761 183.695 479.304C184.386 477.838 184.731 476.04 184.731 473.909ZM201.532 487.396C199.691 487.396 198.085 486.974 196.713 486.131C195.341 485.287 194.275 484.107 193.517 482.589C192.758 481.072 192.379 479.3 192.379 477.271C192.379 475.234 192.758 473.453 193.517 471.928C194.275 470.402 195.341 469.217 196.713 468.374C198.085 467.53 199.691 467.108 201.532 467.108C203.373 467.108 204.98 467.53 206.352 468.374C207.724 469.217 208.789 470.402 209.548 471.928C210.306 473.453 210.686 475.234 210.686 477.271C210.686 479.3 210.306 481.072 209.548 482.589C208.789 484.107 207.724 485.287 206.352 486.131C204.98 486.974 203.373 487.396 201.532 487.396ZM201.545 484.188C202.738 484.188 203.727 483.872 204.511 483.241C205.295 482.611 205.875 481.771 206.25 480.723C206.633 479.675 206.825 478.52 206.825 477.259C206.825 476.006 206.633 474.855 206.25 473.807C205.875 472.75 205.295 471.902 204.511 471.263C203.727 470.624 202.738 470.304 201.545 470.304C200.343 470.304 199.346 470.624 198.554 471.263C197.77 471.902 197.186 472.75 196.802 473.807C196.427 474.855 196.24 476.006 196.24 477.259C196.24 478.52 196.427 479.675 196.802 480.723C197.186 481.771 197.77 482.611 198.554 483.241C199.346 483.872 200.343 484.188 201.545 484.188ZM223.224 487.396C221.383 487.396 219.776 486.974 218.404 486.131C217.032 485.287 215.967 484.107 215.208 482.589C214.45 481.072 214.07 479.3 214.07 477.271C214.07 475.234 214.45 473.453 215.208 471.928C215.967 470.402 217.032 469.217 218.404 468.374C219.776 467.53 221.383 467.108 223.224 467.108C225.065 467.108 226.671 467.53 228.043 468.374C229.415 469.217 230.481 470.402 231.239 471.928C231.998 473.453 232.377 475.234 232.377 477.271C232.377 479.3 231.998 481.072 231.239 482.589C230.481 484.107 229.415 485.287 228.043 486.131C226.671 486.974 225.065 487.396 223.224 487.396ZM223.237 484.188C224.43 484.188 225.418 483.872 226.202 483.241C226.987 482.611 227.566 481.771 227.941 480.723C228.325 479.675 228.516 478.52 228.516 477.259C228.516 476.006 228.325 474.855 227.941 473.807C227.566 472.75 226.987 471.902 226.202 471.263C225.418 470.624 224.43 470.304 223.237 470.304C222.035 470.304 221.038 470.624 220.245 471.263C219.461 471.902 218.877 472.75 218.494 473.807C218.119 474.855 217.931 476.006 217.931 477.259C217.931 478.52 218.119 479.675 218.494 480.723C218.877 481.771 219.461 482.611 220.245 483.241C221.038 483.872 222.035 484.188 223.237 484.188ZM236.644 494.364V467.364H240.377V470.547H240.696C240.918 470.138 241.238 469.665 241.655 469.128C242.073 468.591 242.652 468.122 243.394 467.722C244.135 467.312 245.115 467.108 246.334 467.108C247.919 467.108 249.334 467.509 250.578 468.31C251.823 469.111 252.799 470.266 253.506 471.774C254.222 473.283 254.58 475.098 254.58 477.22C254.58 479.342 254.226 481.162 253.519 482.679C252.811 484.187 251.84 485.351 250.604 486.169C249.368 486.979 247.958 487.384 246.373 487.384C245.179 487.384 244.203 487.183 243.445 486.783C242.695 486.382 242.107 485.913 241.681 485.376C241.255 484.839 240.926 484.362 240.696 483.945H240.466V494.364H236.644ZM240.39 477.182C240.39 478.562 240.59 479.773 240.99 480.812C241.391 481.852 241.971 482.666 242.729 483.254C243.488 483.834 244.417 484.124 245.516 484.124C246.658 484.124 247.613 483.821 248.38 483.216C249.147 482.602 249.726 481.771 250.118 480.723C250.519 479.675 250.719 478.494 250.719 477.182C250.719 475.886 250.523 474.723 250.131 473.692C249.748 472.661 249.168 471.847 248.392 471.25C247.625 470.653 246.667 470.355 245.516 470.355C244.408 470.355 243.471 470.641 242.703 471.212C241.945 471.783 241.37 472.58 240.978 473.602C240.586 474.625 240.39 475.818 240.39 477.182ZM273.577 472.158L270.113 472.771C269.968 472.328 269.738 471.906 269.422 471.506C269.115 471.105 268.698 470.777 268.169 470.521C267.641 470.266 266.98 470.138 266.188 470.138C265.105 470.138 264.202 470.381 263.478 470.866C262.753 471.344 262.391 471.962 262.391 472.72C262.391 473.376 262.634 473.905 263.12 474.305C263.605 474.706 264.39 475.034 265.472 475.29L268.591 476.006C270.398 476.423 271.745 477.067 272.631 477.936C273.517 478.805 273.961 479.935 273.961 481.324C273.961 482.5 273.62 483.548 272.938 484.469C272.265 485.381 271.323 486.097 270.113 486.616C268.911 487.136 267.517 487.396 265.932 487.396C263.733 487.396 261.939 486.928 260.55 485.99C259.161 485.044 258.309 483.702 257.993 481.963L261.688 481.401C261.918 482.364 262.391 483.092 263.107 483.587C263.823 484.072 264.756 484.315 265.907 484.315C267.159 484.315 268.161 484.055 268.911 483.536C269.661 483.007 270.036 482.364 270.036 481.605C270.036 480.991 269.806 480.476 269.346 480.058C268.894 479.641 268.199 479.325 267.262 479.112L263.938 478.384C262.105 477.966 260.75 477.301 259.873 476.389C259.003 475.477 258.569 474.322 258.569 472.925C258.569 471.766 258.892 470.751 259.54 469.882C260.188 469.013 261.083 468.335 262.225 467.849C263.367 467.355 264.675 467.108 266.15 467.108C268.272 467.108 269.942 467.568 271.161 468.489C272.38 469.401 273.185 470.624 273.577 472.158ZM282.983 460.818L282.651 479.47H279.109L278.777 460.818H282.983ZM280.886 487.243C280.179 487.243 279.574 486.996 279.071 486.501C278.568 485.999 278.321 485.393 278.33 484.686C278.321 483.987 278.568 483.391 279.071 482.896C279.574 482.393 280.179 482.142 280.886 482.142C281.577 482.142 282.173 482.393 282.676 482.896C283.179 483.391 283.435 483.987 283.443 484.686C283.435 485.155 283.311 485.585 283.072 485.977C282.842 486.361 282.536 486.668 282.152 486.898C281.768 487.128 281.347 487.243 280.886 487.243ZM291.264 487.243C290.565 487.243 289.964 486.996 289.461 486.501C288.958 485.999 288.707 485.393 288.707 484.686C288.707 483.987 288.958 483.391 289.461 482.896C289.964 482.393 290.565 482.142 291.264 482.142C291.963 482.142 292.564 482.393 293.066 482.896C293.569 483.391 293.821 483.987 293.821 484.686C293.821 485.155 293.701 485.585 293.463 485.977C293.233 486.361 292.926 486.668 292.542 486.898C292.159 487.128 291.733 487.243 291.264 487.243ZM301.459 487.243C300.76 487.243 300.159 486.996 299.657 486.501C299.154 485.999 298.902 485.393 298.902 484.686C298.902 483.987 299.154 483.391 299.657 482.896C300.159 482.393 300.76 482.142 301.459 482.142C302.158 482.142 302.759 482.393 303.262 482.896C303.765 483.391 304.016 483.987 304.016 484.686C304.016 485.155 303.897 485.585 303.658 485.977C303.428 486.361 303.121 486.668 302.738 486.898C302.354 487.128 301.928 487.243 301.459 487.243ZM311.654 487.243C310.956 487.243 310.355 486.996 309.852 486.501C309.349 485.999 309.098 485.393 309.098 484.686C309.098 483.987 309.349 483.391 309.852 482.896C310.355 482.393 310.956 482.142 311.654 482.142C312.353 482.142 312.954 482.393 313.457 482.896C313.96 483.391 314.211 483.987 314.211 484.686C314.211 485.155 314.092 485.585 313.853 485.977C313.623 486.361 313.316 486.668 312.933 486.898C312.549 487.128 312.123 487.243 311.654 487.243ZM319.638 487V460.818H328.971C331.007 460.818 332.695 461.189 334.033 461.93C335.371 462.672 336.373 463.686 337.037 464.973C337.702 466.251 338.034 467.692 338.034 469.294C338.034 470.905 337.698 472.354 337.025 473.641C336.36 474.919 335.354 475.933 334.007 476.683C332.669 477.425 330.986 477.795 328.958 477.795H322.54V474.446H328.6C329.887 474.446 330.931 474.224 331.732 473.781C332.533 473.33 333.121 472.716 333.496 471.94C333.871 471.165 334.059 470.283 334.059 469.294C334.059 468.305 333.871 467.428 333.496 466.661C333.121 465.893 332.529 465.293 331.719 464.858C330.918 464.423 329.861 464.206 328.549 464.206H323.588V487H319.638ZM347.897 487.435C346.653 487.435 345.528 487.205 344.522 486.744C343.517 486.276 342.72 485.598 342.132 484.712C341.552 483.825 341.262 482.739 341.262 481.452C341.262 480.344 341.475 479.432 341.902 478.716C342.328 478 342.903 477.433 343.627 477.016C344.352 476.598 345.162 476.283 346.056 476.07C346.951 475.857 347.863 475.695 348.792 475.584C349.968 475.447 350.923 475.337 351.656 475.251C352.389 475.158 352.922 475.009 353.254 474.804C353.586 474.599 353.752 474.267 353.752 473.807V473.717C353.752 472.601 353.437 471.736 352.806 471.122C352.184 470.509 351.255 470.202 350.02 470.202C348.733 470.202 347.718 470.487 346.977 471.058C346.244 471.621 345.737 472.247 345.456 472.938L341.863 472.119C342.289 470.926 342.912 469.963 343.73 469.23C344.556 468.489 345.507 467.952 346.581 467.619C347.654 467.278 348.784 467.108 349.968 467.108C350.752 467.108 351.583 467.202 352.461 467.389C353.348 467.568 354.174 467.901 354.941 468.386C355.717 468.872 356.352 469.567 356.846 470.47C357.341 471.365 357.588 472.528 357.588 473.96V487H353.855V484.315H353.701C353.454 484.81 353.083 485.295 352.589 485.773C352.095 486.25 351.46 486.646 350.684 486.962C349.909 487.277 348.98 487.435 347.897 487.435ZM348.728 484.366C349.785 484.366 350.689 484.158 351.439 483.74C352.197 483.322 352.772 482.777 353.164 482.104C353.565 481.422 353.765 480.693 353.765 479.918V477.386C353.629 477.523 353.365 477.651 352.973 477.77C352.589 477.881 352.15 477.979 351.656 478.064C351.162 478.141 350.68 478.213 350.211 478.281C349.743 478.341 349.35 478.392 349.035 478.435C348.294 478.528 347.616 478.686 347.002 478.908C346.397 479.129 345.912 479.449 345.545 479.866C345.187 480.276 345.008 480.821 345.008 481.503C345.008 482.449 345.358 483.165 346.056 483.651C346.755 484.128 347.646 484.366 348.728 484.366ZM370.912 494.773C369.352 494.773 368.01 494.568 366.885 494.159C365.768 493.75 364.857 493.209 364.149 492.536C363.442 491.862 362.913 491.125 362.564 490.324L365.849 488.969C366.08 489.344 366.386 489.74 366.77 490.158C367.162 490.584 367.69 490.946 368.355 491.244C369.028 491.543 369.893 491.692 370.95 491.692C372.399 491.692 373.597 491.338 374.543 490.631C375.489 489.932 375.962 488.815 375.962 487.281V483.42H375.719C375.489 483.838 375.156 484.303 374.722 484.814C374.295 485.325 373.707 485.768 372.957 486.143C372.207 486.518 371.232 486.706 370.03 486.706C368.479 486.706 367.081 486.344 365.837 485.619C364.601 484.886 363.621 483.808 362.896 482.385C362.18 480.953 361.822 479.193 361.822 477.105C361.822 475.017 362.176 473.227 362.884 471.736C363.599 470.244 364.58 469.102 365.824 468.31C367.068 467.509 368.479 467.108 370.055 467.108C371.274 467.108 372.259 467.312 373.009 467.722C373.759 468.122 374.342 468.591 374.76 469.128C375.186 469.665 375.514 470.138 375.744 470.547H376.026V467.364H379.771V487.435C379.771 489.122 379.379 490.507 378.595 491.589C377.811 492.672 376.75 493.473 375.412 493.993C374.082 494.513 372.582 494.773 370.912 494.773ZM370.874 483.536C371.973 483.536 372.902 483.28 373.661 482.768C374.428 482.249 375.007 481.507 375.399 480.544C375.8 479.572 376 478.409 376 477.054C376 475.733 375.804 474.57 375.412 473.564C375.02 472.558 374.445 471.774 373.686 471.212C372.928 470.641 371.99 470.355 370.874 470.355C369.723 470.355 368.764 470.653 367.997 471.25C367.23 471.838 366.651 472.639 366.259 473.653C365.875 474.668 365.683 475.801 365.683 477.054C365.683 478.341 365.879 479.47 366.271 480.442C366.663 481.413 367.243 482.172 368.01 482.717C368.786 483.263 369.74 483.536 370.874 483.536ZM393.361 487.396C391.426 487.396 389.76 486.983 388.362 486.156C386.973 485.321 385.899 484.149 385.141 482.641C384.391 481.124 384.016 479.347 384.016 477.31C384.016 475.298 384.391 473.526 385.141 471.991C385.899 470.457 386.956 469.26 388.311 468.399C389.675 467.538 391.268 467.108 393.092 467.108C394.2 467.108 395.274 467.291 396.314 467.658C397.354 468.024 398.287 468.599 399.114 469.384C399.94 470.168 400.592 471.186 401.07 472.439C401.547 473.683 401.786 475.196 401.786 476.977V478.332H386.176V475.469H398.04C398.04 474.463 397.835 473.572 397.426 472.797C397.017 472.013 396.442 471.395 395.7 470.943C394.967 470.491 394.107 470.266 393.118 470.266C392.044 470.266 391.107 470.53 390.305 471.058C389.513 471.578 388.899 472.26 388.464 473.104C388.038 473.939 387.825 474.847 387.825 475.827V478.064C387.825 479.376 388.055 480.493 388.516 481.413C388.984 482.334 389.636 483.037 390.472 483.523C391.307 484 392.283 484.239 393.399 484.239C394.124 484.239 394.784 484.136 395.381 483.932C395.977 483.719 396.493 483.403 396.928 482.986C397.362 482.568 397.695 482.053 397.925 481.439L401.543 482.091C401.253 483.156 400.733 484.089 399.983 484.891C399.241 485.683 398.308 486.301 397.183 486.744C396.067 487.179 394.793 487.396 393.361 487.396ZM419.376 475.341V487H415.554V467.364H419.223V470.56H419.466C419.918 469.52 420.625 468.685 421.588 468.054C422.56 467.423 423.783 467.108 425.257 467.108C426.595 467.108 427.767 467.389 428.773 467.952C429.778 468.506 430.558 469.332 431.112 470.432C431.666 471.531 431.943 472.891 431.943 474.51V487H428.121V474.97C428.121 473.547 427.75 472.435 427.009 471.634C426.267 470.824 425.249 470.419 423.953 470.419C423.067 470.419 422.278 470.611 421.588 470.994C420.906 471.378 420.365 471.94 419.964 472.682C419.572 473.415 419.376 474.301 419.376 475.341ZM445.341 487.396C443.5 487.396 441.893 486.974 440.521 486.131C439.149 485.287 438.084 484.107 437.325 482.589C436.567 481.072 436.188 479.3 436.188 477.271C436.188 475.234 436.567 473.453 437.325 471.928C438.084 470.402 439.149 469.217 440.521 468.374C441.893 467.53 443.5 467.108 445.341 467.108C447.182 467.108 448.788 467.53 450.161 468.374C451.533 469.217 452.598 470.402 453.357 471.928C454.115 473.453 454.494 475.234 454.494 477.271C454.494 479.3 454.115 481.072 453.357 482.589C452.598 484.107 451.533 485.287 450.161 486.131C448.788 486.974 447.182 487.396 445.341 487.396ZM445.354 484.188C446.547 484.188 447.536 483.872 448.32 483.241C449.104 482.611 449.683 481.771 450.058 480.723C450.442 479.675 450.634 478.52 450.634 477.259C450.634 476.006 450.442 474.855 450.058 473.807C449.683 472.75 449.104 471.902 448.32 471.263C447.536 470.624 446.547 470.304 445.354 470.304C444.152 470.304 443.155 470.624 442.362 471.263C441.578 471.902 440.994 472.75 440.611 473.807C440.236 474.855 440.048 476.006 440.048 477.259C440.048 478.52 440.236 479.675 440.611 480.723C440.994 481.771 441.578 482.611 442.362 483.241C443.155 483.872 444.152 484.188 445.354 484.188ZM467.927 467.364V470.432H457.201V467.364H467.927ZM460.078 462.659H463.9V481.234C463.9 481.976 464.011 482.534 464.233 482.909C464.454 483.276 464.74 483.527 465.089 483.663C465.447 483.791 465.835 483.855 466.252 483.855C466.559 483.855 466.828 483.834 467.058 483.791C467.288 483.749 467.467 483.714 467.595 483.689L468.285 486.847C468.064 486.932 467.748 487.017 467.339 487.102C466.93 487.196 466.419 487.247 465.805 487.256C464.799 487.273 463.862 487.094 462.993 486.719C462.123 486.344 461.42 485.764 460.883 484.98C460.346 484.196 460.078 483.212 460.078 482.027V462.659ZM491.028 467.364V470.432H479.931V467.364H491.028ZM482.974 487V465.088C482.974 463.861 483.243 462.842 483.779 462.033C484.316 461.214 485.028 460.605 485.914 460.205C486.801 459.795 487.764 459.591 488.804 459.591C489.571 459.591 490.227 459.655 490.772 459.783C491.318 459.902 491.723 460.013 491.987 460.115L491.092 463.209C490.913 463.158 490.683 463.098 490.402 463.03C490.12 462.953 489.779 462.915 489.379 462.915C488.45 462.915 487.785 463.145 487.385 463.605C486.993 464.065 486.797 464.73 486.797 465.599V487H482.974ZM502.47 487.396C500.629 487.396 499.022 486.974 497.65 486.131C496.278 485.287 495.213 484.107 494.454 482.589C493.696 481.072 493.316 479.3 493.316 477.271C493.316 475.234 493.696 473.453 494.454 471.928C495.213 470.402 496.278 469.217 497.65 468.374C499.022 467.53 500.629 467.108 502.47 467.108C504.311 467.108 505.917 467.53 507.289 468.374C508.662 469.217 509.727 470.402 510.485 471.928C511.244 473.453 511.623 475.234 511.623 477.271C511.623 479.3 511.244 481.072 510.485 482.589C509.727 484.107 508.662 485.287 507.289 486.131C505.917 486.974 504.311 487.396 502.47 487.396ZM502.483 484.188C503.676 484.188 504.664 483.872 505.449 483.241C506.233 482.611 506.812 481.771 507.187 480.723C507.571 479.675 507.762 478.52 507.762 477.259C507.762 476.006 507.571 474.855 507.187 473.807C506.812 472.75 506.233 471.902 505.449 471.263C504.664 470.624 503.676 470.304 502.483 470.304C501.281 470.304 500.284 470.624 499.491 471.263C498.707 471.902 498.123 472.75 497.74 473.807C497.365 474.855 497.177 476.006 497.177 477.259C497.177 478.52 497.365 479.675 497.74 480.723C498.123 481.771 498.707 482.611 499.491 483.241C500.284 483.872 501.281 484.188 502.483 484.188ZM528.329 478.857V467.364H532.164V487H528.406V483.599H528.201C527.749 484.648 527.025 485.521 526.028 486.22C525.039 486.911 523.808 487.256 522.333 487.256C521.072 487.256 519.955 486.979 518.984 486.425C518.021 485.862 517.262 485.031 516.708 483.932C516.163 482.832 515.89 481.473 515.89 479.854V467.364H519.712V479.393C519.712 480.732 520.083 481.797 520.825 482.589C521.566 483.382 522.529 483.778 523.714 483.778C524.43 483.778 525.141 483.599 525.849 483.241C526.565 482.884 527.157 482.342 527.626 481.618C528.103 480.893 528.337 479.973 528.329 478.857ZM541.123 475.341V487H537.3V467.364H540.969V470.56H541.212C541.664 469.52 542.371 468.685 543.334 468.054C544.306 467.423 545.529 467.108 547.003 467.108C548.341 467.108 549.513 467.389 550.519 467.952C551.525 468.506 552.304 469.332 552.858 470.432C553.412 471.531 553.689 472.891 553.689 474.51V487H549.867V474.97C549.867 473.547 549.496 472.435 548.755 471.634C548.013 470.824 546.995 470.419 545.699 470.419C544.813 470.419 544.025 470.611 543.334 470.994C542.652 471.378 542.111 471.94 541.711 472.682C541.319 473.415 541.123 474.301 541.123 475.341ZM566.167 487.384C564.581 487.384 563.167 486.979 561.922 486.169C560.686 485.351 559.715 484.187 559.007 482.679C558.309 481.162 557.959 479.342 557.959 477.22C557.959 475.098 558.313 473.283 559.02 471.774C559.736 470.266 560.716 469.111 561.961 468.31C563.205 467.509 564.615 467.108 566.192 467.108C567.411 467.108 568.391 467.312 569.132 467.722C569.882 468.122 570.462 468.591 570.871 469.128C571.289 469.665 571.613 470.138 571.843 470.547H572.073V460.818H575.895V487H572.162V483.945H571.843C571.613 484.362 571.28 484.839 570.846 485.376C570.419 485.913 569.831 486.382 569.081 486.783C568.331 487.183 567.36 487.384 566.167 487.384ZM567.01 484.124C568.11 484.124 569.039 483.834 569.797 483.254C570.564 482.666 571.144 481.852 571.536 480.812C571.936 479.773 572.137 478.562 572.137 477.182C572.137 475.818 571.941 474.625 571.549 473.602C571.157 472.58 570.581 471.783 569.823 471.212C569.064 470.641 568.127 470.355 567.01 470.355C565.86 470.355 564.901 470.653 564.134 471.25C563.367 471.847 562.787 472.661 562.395 473.692C562.012 474.723 561.82 475.886 561.82 477.182C561.82 478.494 562.016 479.675 562.408 480.723C562.8 481.771 563.38 482.602 564.147 483.216C564.922 483.821 565.877 484.124 567.01 484.124ZM583.869 487.243C583.17 487.243 582.57 486.996 582.067 486.501C581.564 485.999 581.312 485.393 581.312 484.686C581.312 483.987 581.564 483.391 582.067 482.896C582.57 482.393 583.17 482.142 583.869 482.142C584.568 482.142 585.169 482.393 585.672 482.896C586.175 483.391 586.426 483.987 586.426 484.686C586.426 485.155 586.307 485.585 586.068 485.977C585.838 486.361 585.531 486.668 585.148 486.898C584.764 487.128 584.338 487.243 583.869 487.243Z" fill="#1748D2"/>
</svg>
